<svg id="Layer_1" xmlns="http://www.w3.org/2000/svg" width="128" height="26" viewBox="0 0 247.3 52"><style>.st0{fill:#00bf09}.st1{fill:#fff}.st2{fill:#7c7c7c}</style><circle class="st0" cx="142.2" cy="29.6" r="18.7"/><path class="st1" d="M138.6 42.7v-2.4c-1.7-.4-6.3-1.9-7.4-6.5l-.2-.9h8.1l.1.6c0 .2.3 1.6 1.9 1.6 2.1 0 2.1-.9 2.1-1.3 0-.9-1.4-1.4-3.7-2.2-.9-.3-1.9-.7-2.9-1.1-.5-.2-4.9-1.6-4.9-5.4 0-3.5 3.8-6 6.8-6.3v-2.1h6V19c1.7.2 5.6 1 7.3 5.1l.5 1H144l-.1-.6c0-.1-.3-1.4-2.1-1.4-1.3 0-1.6.7-1.6 1.2 0 .6 0 1.4 4.4 2.6 4.9 1.3 7.3 3.5 7.3 6.7 0 2.6-1.3 5.8-7.4 6.9v2.3h-5.9z"/><path class="st2" d="M198.7 16.2c-3.3 0-6.3 1.3-7.5 2.5-1.6 1.7-2.5 4.8-2.5 9.3 0 3.2.6 7.3 2.2 8.8 2.9 2.8 6.5 2.8 7.7 2.8h.1c3.4 0 6-.9 8-2.8 1.6-1.6 2.2-5.6 2.2-8.9 0-4.4-.8-7.5-2.5-9.2-1.3-1.4-4.6-2.5-7.7-2.5zm5.5 18.8c-1.1 1.2-4.2 1.9-5.4 1.9-1.2 0-4-.6-5.2-1.9-1.2-1.3-1.4-4.5-1.4-6.9 0-2.2.2-6 1.4-7.5.5-.6 2.3-1.7 5.3-1.7 3.7 0 5.2 1.6 5.3 1.7 1.2 1.4 1.4 5.3 1.4 7.5 0 3.5-.5 5.8-1.4 6.9zM177.6 36.6c-2.9 0-5-1.1-5.8-2.1-.7-.9-1.4-2.4-1.4-6.8 0-4.5.8-6 1.6-6.9.8-.9 2.1-1.9 5.6-1.9 2.6 0 4.4.8 5.2 1.1l1-2.8c-.9-.3-3.6-1.2-6.2-1.2-1.5 0-5.3 0-7.8 2.6s-2.8 7.2-2.8 9c0 4 .7 6.9 2 8.6 2.3 3 6.3 3.4 8.6 3.4 2.5 0 5.3-.9 6.2-1.2l-1-3c-.8.5-2.9 1.2-5.2 1.2zM243.3 16.8c-1.4-.6-2.5-.7-3.7-.7h-1.4c-3.7 0-7.3 1.6-7.3 1.6l-.2.1-.2-.1s-1.9-1.6-6.3-1.6c-4.9 0-7.7 1.2-8.8 1.8V39h3.5V20.2l.1-.1c.1-.1 1-.9 4.9-.9 3.8 0 4.7 1.8 4.9 2.1.1.2.8 1.5.8 3.2V39h3.5V26.7c.1-1.8-.1-4.9-.8-5.6l-.3-.3.3-.3c1.3-1 4.2-1.3 5.7-1.3 3.9 0 5 2 5.1 2.1 0 .1.8 1.4.8 3.2V39h3.5V25.1c-.1 0 0-6.4-4.1-8.3z"/><g><path class="st0" d="M28.1 18.9S26 21.5 26 27.7c0 6.2 1.2 8 1.6 8.7.4.7 2 3.5 8.5 3.6 4.2 0 5.9-1.7 5.9-1.7V48h4.2V17.7s-3.4-1.9-9.6-1.9c-6.2 0-8.5 3.1-8.5 3.1zm3.6 1.9c1-.9 2.5-1.5 4.5-1.5 2.7 0 5.9 1.1 5.9 1.1v13.7s-1.4 2-5.9 2c-2.1 0-3.5-.5-4.5-1.5-1.2-1.3-1.5-3.1-1.5-6.7s.6-6.2 1.5-7.1zM15.9 16.5h4.2v22.8h-4.2zM9.1 34.3V6.7H4.9v27.6c0 3.6 2.8 5.8 2.8 5.8l3.1-2c-1.8-1.4-1.7-3.8-1.7-3.8zM61 15.8c-6.2 0-9.6 1.9-9.6 1.9V48h4.2v-9.7s1.8 1.7 5.9 1.7c6.5-.1 8.1-2.9 8.5-3.6.4-.7 1.6-2.5 1.6-8.7 0-6.2-2.1-8.8-2.1-8.8s-2.3-3.1-8.5-3.1zm.5 20.3c-4.5 0-5.9-2-5.9-2V20.4s3.2-1.1 5.9-1.1c2 0 3.5.5 4.5 1.5.9.9 1.5 3.5 1.5 7.1 0 3.6-.3 5.4-1.5 6.7-.9 1-2.4 1.5-4.5 1.5zM116.1 16.5s-1 4.1-2.6 8.9c-1.5 4.7-3.8 10.4-3.8 10.4s-1.3-5.1-3-10.1-3.5-9.2-3.5-9.2H99s3 8.4 4.8 13.5c1.7 5 3.3 10.2 3.3 10.2s-.7 2.4-3.8 7.8h4.9s2.9-5 6.9-15.3c4-10.4 5.3-16.1 5.3-16.1h-4.3zM85.8 15.8c-4.9 0-8.3 1.3-8.3 1.3l1.2 3.4s4.3-1 7.2-1c3 0 3.6.4 4 .7 2 1.6 1.2 5.3 1.2 5.3s-2.9-.7-5.3-.7c-2.5 0-5.3.5-7 1.7-2 1.5-2.4 4.1-2.4 5.5 0 1.5.3 5.3 2.5 6.5 1.9 1.1 4.7 1.5 6.9 1.5 4.7 0 9.6-1.9 9.6-1.9v-15s0-2.6-1.6-4.7c-1.2-1.6-3.1-2.6-8-2.6zm-4.1 13c.6-.5 2.1-.9 4.1-.9 1.8 0 5.5.6 5.5.6v7.2s-2.3 1-5.5 1c-2 0-3.1-.3-3.9-.8-.9-.6-1.3-1.6-1.3-3.5.1-1.5.4-3 1.1-3.6zM19.2 7.7h-2.4c-.6 0-1.1.5-1.1 1.1V11c0 .6.5 1.1 1.1 1.1h2.4c.6 0 1.1-.5 1.1-1.1V8.7c-.1-.5-.5-1-1.1-1z"/></g></svg>