<svg id="Layer_1" data-name="Layer 1" xmlns="http://www.w3.org/2000/svg" width="48" height="30" viewBox="0 0 159.098 101.924"><defs><style>.cls-1{fill:#fcb131}.cls-2{fill:#ed1b2e}.cls-3{fill:#ea9c1f}</style></defs><path class="cls-1" d="M107.659 7.819a42.926 42.926 0 0 0-28.737 11.622 43.994 43.994 0 0 0-4.273 4.63l8.7-.142a44.049 44.049 0 0 1 3.359 4.508l-15.271.249a43.378 43.378 0 0 0-2.408 4.6l20.234-.33a43 43 0 0 1 1.9 4.53l-23.882.389A42.646 42.646 0 0 0 66.1 42.46l26.383-.43a43.367 43.367 0 0 1-.878 22.826l-23.882.389a43.238 43.238 0 0 0 1.9 4.532l20.235-.33a43.027 43.027 0 0 1-2.41 4.6l-15.266.253a43.359 43.359 0 0 0 3.359 4.5l8.7-.142a43.067 43.067 0 0 1-4.277 4.633 43.081 43.081 0 1 0 27.695-75.472z"/><path class="cls-2" d="M65.7 51.6a42.964 42.964 0 0 1 13.44-31.965A43.08 43.08 0 1 0 80.165 83.1 42.961 42.961 0 0 1 65.7 51.6z"/><path class="cls-3" d="M93.6 51.136a42.964 42.964 0 0 0-14.467-31.5A43.067 43.067 0 0 0 80.165 83.1 42.962 42.962 0 0 0 93.6 51.136z"/></svg>