<svg id="Layer_1" data-name="Layer 1" xmlns="http://www.w3.org/2000/svg" width="36" height="36" viewBox="0 0 73.516 73.419"><title>1-01</title><path fill="#a60c00" class="cls-1" d="M35.468 70.416L22.984 57.9a.68.68 0 0 1 .483-1.161l5.473.014a1.458 1.458 0 0 0 1.461-1.41l.062-11.276a1.252 1.252 0 0 1 1.252-1.245h10.4A1.081 1.081 0 0 1 43.2 43.9l.062 11.121a1.667 1.667 0 0 0 1.635 1.658l5.8.111a.569.569 0 0 1 .391.972L38.389 70.419a2.065 2.065 0 0 1-2.921-.003zM35.468 1.21L22.984 13.725a.68.68 0 0 0 .483 1.161l5.473-.014a1.458 1.458 0 0 1 1.461 1.41l.062 11.276a1.252 1.252 0 0 0 1.252 1.242h10.4a1.081 1.081 0 0 0 1.085-1.073l.062-11.121a1.667 1.667 0 0 1 1.635-1.658l5.8-.111a.569.569 0 0 0 .391-.972L38.389 1.207a2.065 2.065 0 0 0-2.921.003zM1.5 33.727l13.3-12.135a.733.733 0 0 1 1.233.47l-.05 26.463a.614.614 0 0 1-1.033.38L1.5 36.566a1.889 1.889 0 0 1 0-2.839zM70.73 34.081L57.434 21.6a.729.729 0 0 0-1.233.483l.05 27.223a.611.611 0 0 0 1.033.391L70.734 37a1.981 1.981 0 0 0-.004-2.919z" transform="translate(.641 .896)"/></svg>