<svg id="Isolation_Mode" data-name="Isolation Mode" xmlns="http://www.w3.org/2000/svg" width="70" height="32" viewBox="0 0 198.592 88.425"><defs><style>.cls-1{fill:#00589f}.cls-2{fill:#f9a51a}</style></defs><path class="cls-1" d="M73.008 69.425l8.897-52.203h14.229l-8.902 52.203H73.008zM138.838 18.507a36.751 36.751 0 0 0-12.753-2.192c-14.06 0-23.964 7.08-24.048 17.228-.079 7.5 7.07 11.685 12.468 14.183 5.538 2.559 7.4 4.19 7.374 6.476-.035 3.5-4.423 5.1-8.513 5.1a29.825 29.825 0 0 1-13.394-2.74l-1.834-.83-2 11.687c3.324 1.457 9.469 2.72 15.85 2.785 14.957 0 24.667-7 24.777-17.835.054-5.938-3.737-10.458-11.946-14.184-4.974-2.415-8.02-4.026-7.987-6.472 0-2.17 2.578-4.49 8.148-4.49a26.245 26.245 0 0 1 10.649 2l1.275.6 1.929-11.315M175.326 17.272h-11c-3.406 0-5.955.93-7.451 4.329l-21.127 47.841h14.941s2.443-6.433 3-7.845c1.633 0 16.147.022 18.223.022.426 1.827 1.731 7.822 1.731 7.822h13.2l-11.517-52.17M157.78 50.919c1.177-3.008 5.669-14.593 5.669-14.593-.084.139 1.168-3.022 1.887-4.982l.962 4.5s2.725 12.461 3.294 15.074zM61.074 17.26l-13.931 35.6-1.484-7.234c-2.593-8.34-10.673-17.375-19.707-21.9L38.691 69.38l15.055-.017 22.4-52.1H61.074"/><path class="cls-2" d="M34.22 17.228H11.276l-.182 1.086c17.851 4.321 29.662 14.764 34.565 27.311l-4.989-23.99c-.861-3.306-3.359-4.292-6.45-4.407"/></svg>